# xmcd
#
# Track frame offsets: 
#        150
#        3934
#        18340
#        31049
#        47812
#        64591
#        80237
#        98833
#        113652
#        128978
#        143277
#        157477
#        171975
#        189405
#        202119
#        219485
#        237298
#        252266
#        272646
#
# Disc length: 3905 seconds
#
# Revision: 0
# Processed by: cddbd v1.5.2PL0 Copyright (c) Steve Scherf et al.
# Submitted via: ExactAudioCopyFreeDBPlugin 1.0
#
DISCID=070f3f13
DTITLE=50 Cent - Curtis
DYEAR=2007
DGENRE=Hip-Hop
TTITLE0=Intro
TTITLE1=My Gun Go Off
TTITLE2=Man Down (Censored)
TTITLE3=I'll Still Kill (Feat. Akon)
TTITLE4=I Get Money
TTITLE5=Come and Go
TTITLE6=Ayo Technology (Feat. Justin Timberlake and Timbaland)
TTITLE7=Follow My Lead (Feat. Robin Thicke)
TTITLE8=Movin On Up
TTITLE9=Straight To The Bank
TTITLE10=Amusement Park
TTITLE11=Fully Loaded Clip
TTITLE12=Peep Show (Feat. Eminem)
TTITLE13=Fire (Feat. Young Buck and Nicole Scherzinger)
TTITLE14=All Of Me (Feat. Mary J. Blige)
TTITLE15=Curtis 187
TTITLE16=Touch The Sky (Feat. Tony Yayo)
TTITLE17=Smile (I'm Leaving)
TTITLE18=I Get Money (Forbes 1, 2, 3 Remix) (Feat. Diddy and Jay-Z)
EXTD=
EXTT0=
EXTT1=
EXTT2=
EXTT3=
EXTT4=
EXTT5=
EXTT6=
EXTT7=
EXTT8=
EXTT9=
EXTT10=
EXTT11=
EXTT12=
EXTT13=
EXTT14=
EXTT15=
EXTT16=
EXTT17=
EXTT18=
PLAYORDER=
